<?xml version="1.0" encoding="UTF-8"?> <!-- Creator: CorelDRAW --> <svg xmlns="http://www.w3.org/2000/svg" xmlns:xlink="http://www.w3.org/1999/xlink" xml:space="preserve" width="219.677mm" height="45.9525mm" style="shape-rendering:geometricPrecision; text-rendering:geometricPrecision; image-rendering:optimizeQuality; fill-rule:evenodd; clip-rule:evenodd" viewBox="0 0 223.504 46.7531"> <defs> <style type="text/css"> <![CDATA[ .fil2 {fill:white} .fil0 {fill:#16793C;fill-rule:nonzero} .fil3 {fill:#2B2A29;fill-rule:nonzero} .fil1 {fill:#ECC004;fill-rule:nonzero} ]]> </style> </defs> <g id="Layer_x0020_1"> <metadata id="CorelCorpID_0Corel-Layer"></metadata> <polygon class="fil0" points="-0,35.5447 -0,2.91827 3.58794,2.91827 3.58794,17.0308 20.8102,17.0308 20.8102,2.91827 24.3982,2.91827 24.3982,35.5447 20.8102,35.5447 20.8102,19.9969 3.58794,19.9969 3.58794,35.5447 "></polygon> <path class="fil0" d="M40.9025 12.3905c2.0092,0 3.82713,0.494365 5.45369,1.48299 1.62655,0.98873 2.9023,2.3362 3.82713,4.04242 0.924938,1.70632 1.38736,3.61195 1.38736,5.71679 0,0.605976 -0.0159735,1.0685 -0.0478188,1.38736l-18.4182 0c0.127585,2.29632 0.877017,4.25771 2.2484,5.88426 1.37138,1.62655 3.23713,2.43988 5.59724,2.43988 1.91357,0 3.50024,-0.358845 4.76001,-1.07643 1.25977,-0.717587 2.27241,-1.71425 3.03782,-2.99l2.58334 1.72229c-1.05242,1.6584 -2.43978,2.95805 -4.16207,3.89886 -1.72219,0.940912 -3.76334,1.41127 -6.12345,1.41127 -2.16863,0 -4.09817,-0.510237 -5.78852,-1.53081 -1.69034,-1.02058 -3.01391,-2.43988 -3.97069,-4.25771 -0.956783,-1.81793 -1.43517,-3.87505 -1.43517,-6.17127 0,-2.29632 0.470456,-4.35345 1.41127,-6.17137 0.94081,-1.81783 2.2484,-3.23713 3.92287,-4.25771 1.67437,-1.02058 3.5799,-1.53081 5.71679,-1.53081zm7.41507 9.95059c-0.31886,-2.32817 -1.10024,-4.07437 -2.34414,-5.2384 -1.2438,-1.16413 -2.93414,-1.7462 -5.07093,-1.7462 -2.0731,0 -3.77138,0.661833 -5.09494,1.9854 -1.32356,1.32356 -2.1607,2.9899 -2.51151,4.9992l15.0215 0z"></path> <path class="fil0" d="M77.1645 13.1559l0 22.3889 -3.2531 0 0 -3.30092c-0.924836,1.27574 -2.05702,2.27241 -3.39656,2.99 -1.33954,0.717587 -2.80656,1.07633 -4.40126,1.07633 -2.13679,0 -4.05036,-0.510237 -5.7407,-1.53081 -1.69034,-1.02058 -3.01391,-2.43988 -3.97069,-4.25771 -0.956783,-1.81793 -1.43517,-3.89093 -1.43517,-6.21919 0,-2.29622 0.470456,-4.34541 1.41127,-6.14736 0.94081,-1.80196 2.2484,-3.21322 3.92287,-4.2338 1.67437,-1.02058 3.5799,-1.53081 5.71679,-1.53081 1.62655,0 3.11748,0.358743 4.47299,1.07633 1.35541,0.717587 2.49563,1.73023 3.42047,3.03782l0 -3.34874 3.2531 0zm-11.1466 20.1883c1.53081,0 2.89426,-0.382754 4.09024,-1.14816 1.19598,-0.765406 2.12885,-1.8339 2.79862,-3.20529 0.669769,-1.37138 1.0046,-2.91817 1.0046,-4.64036 0,-1.72229 -0.334833,-3.26908 -1.0046,-4.64046 -0.669769,-1.37138 -1.60264,-2.43988 -2.79862,-3.20529 -1.19598,-0.765406 -2.55943,-1.14816 -4.09024,-1.14816 -1.49897,0 -2.8385,0.382754 -4.01851,1.14816 -1.18011,0.765406 -2.10494,1.82586 -2.77471,3.18138 -0.669769,1.35541 -1.0046,2.89426 -1.0046,4.61645 0,1.75414 0.334833,3.3169 1.0046,4.68828 0.669769,1.37138 1.5946,2.43988 2.77471,3.20529 1.18001,0.765406 2.51954,1.14816 4.01851,1.14816z"></path> <polygon class="fil0" points="83.4313,35.5447 83.4313,0.813327 86.6844,0.813327 86.6844,35.5447 "></polygon> <polygon class="fil0" points="94.0995,35.5447 94.0995,16.122 90.2724,16.122 90.2724,13.1559 94.0995,13.1559 94.0995,5.7408 97.3526,5.7408 97.3526,13.1559 102.519,13.1559 102.519,16.122 97.3526,16.122 97.3526,35.5447 "></polygon> <path class="fil0" d="M116.727 12.3905c1.56276,0 3.00587,0.31886 4.32943,0.956783 1.32356,0.637822 2.37609,1.57873 3.15747,2.82253 0.78138,1.2438 1.17207,2.71092 1.17207,4.40116l0 14.9738 -3.2531 0 0 -13.5385c0,-4.43321 -1.97736,-6.64977 -5.93208,-6.64977 -2.29632,0 -4.01851,0.813327 -5.16667,2.43988 -1.14816,1.62655 -1.72219,3.81116 -1.72219,6.55403l0 11.1944 -3.2531 0 0 -18.7089 0 -16.0226 3.2531 0 0 16.074c0.765406,-1.43517 1.77794,-2.54345 3.03772,-3.32483 1.25977,-0.78138 2.71896,-1.17207 4.37735,-1.17207z"></path> <polygon class="fil1" points="150.597,35.5447 139.403,19.8534 135.959,23.9198 135.959,35.5447 132.371,35.5447 132.371,2.91827 135.959,2.91827 135.959,19.4229 149.736,2.91827 153.707,2.91827 141.508,17.3658 154.664,35.5447 "></polygon> <path class="fil1" d="M168.681 12.3905c0.765508,0 1.49907,0.111611 2.20068,0.334833l0 2.96609c-0.669769,-0.318962 -1.40333,-0.478392 -2.20068,-0.478392 -1.37138,0 -2.64703,0.382652 -3.82713,1.14816 -1.18001,0.765406 -2.12885,1.87368 -2.84644,3.32483 -0.717587,1.45115 -1.07633,3.1653 -1.07633,5.14276l0 10.716 -3.2531 0 0 -22.3889 3.2531 0 0 4.4969c0.861044,-1.6584 1.95345,-2.95012 3.27691,-3.87495 1.32356,-0.924938 2.8146,-1.38736 4.47299,-1.38736z"></path> <path class="fil1" d="M194.705 13.1561l0 22.3888 -3.25321 0c0,-5.24155 0.207452,-2.24179 -3.39646,-0.311128 -1.33944,0.717587 -2.80666,1.07653 -4.40116,1.07653 -2.13689,0 -4.05046,-0.510339 -5.7406,-1.53091 -1.69045,-1.02047 -3.01391,-2.43978 -3.97079,-4.2576 -0.956783,-1.81793 -1.43507,-3.89103 -1.43507,-6.21909 0,-2.29632 0.470354,-4.34551 1.41116,-6.14747 0.94081,-1.80196 2.2485,-3.21312 3.92287,-4.23359 1.67427,-1.02058 3.58,-1.53091 5.71669,-1.53091 1.62655,0 3.11748,0.358641 4.47299,1.07643 1.35541,0.717587 2.49563,1.73023 3.42037,3.03761l0 -3.34864 3.25321 0z"></path> <path class="fil1" d="M209.009 2.96609c-1.11621,0 -2.03322,0.382652 -2.7508,1.14816 -0.717587,0.765406 -1.07633,1.75403 -1.07633,2.96599l0 6.07564 5.16667 0 0 2.96609 -5.16667 0 0 19.4228 -3.2531 0 0 -19.4228 -2.87035 0 0 -2.96609 2.87035 0 0 -6.07564c0,-2.073 0.661731,-3.77128 1.98529,-5.09484 1.32356,-1.32356 3.02184,-1.9854 5.09494,-1.9854l1.33954 0 0 2.96609 -1.33954 0z"></path> <polygon class="fil1" points="215.084,35.5447 215.084,16.122 211.257,16.122 211.257,13.1559 215.084,13.1559 215.084,5.7408 218.337,5.7408 218.337,13.1559 223.504,13.1559 223.504,16.122 218.337,16.122 218.337,35.5447 "></polygon> <path class="fil2" d="M176.431 30.8203c-1.42297,-2.79699 -0.314078,-4.59763 0.917409,-5.98376 3.46442,-3.89927 12.4211,-4.0178 11.3969,-9.08028 7.15278,13.4862 -5.19292,23.1365 -11.8897,15.6824 4.73244,0.134198 10.0881,-4.04629 10.8732,-7.52048 -1.22437,3.17944 -7.56911,7.24689 -11.2978,6.90209z"></path> <path class="fil3" d="M132.27 46.6719l1.91428 -4.98292 0.710059 0 2.03952 4.98292 -0.751773 0 -0.581253 -1.50935 -2.08358 0 -0.546457 1.50935 -0.7008 0zm1.43752 -2.04654l1.69034 0 -0.52092 -1.37942c-0.157802,-0.418872 -0.276128,-0.763371 -0.35274,-1.0337 -0.0637923,0.320183 -0.153122,0.636906 -0.269108,0.95251l-0.547576 1.46061zm5.30321 2.04654l0 -4.98292 1.71588 0c0.387434,0 0.6833,0.0244181 0.887497,0.0719317 0.285387,0.0650132 0.529059,0.184459 0.730916,0.356199 0.26219,0.222714 0.459366,0.505862 0.589392,0.851582 0.131044,0.34572 0.196057,0.740174 0.196057,1.18448 0,0.378176 -0.0441561,0.713518 -0.133486,1.00582 -0.0881087,0.292407 -0.200636,0.534859 -0.339921,0.726337 -0.138064,0.191377 -0.288846,0.342261 -0.453567,0.451328 -0.163601,0.110187 -0.361999,0.193717 -0.594072,0.250591 -0.233193,0.0567721 -0.499961,0.0846495 -0.800507,0.0846495l-1.79819 0zm0.658882 -0.588171l1.06392 0c0.328322,0 0.587052,-0.0302174 0.773851,-0.0916697 0.186799,-0.061554 0.33524,-0.147323 0.446648,-0.25873 0.156581,-0.155462 0.278468,-0.366577 0.365458,-0.629987 0.0869896,-0.26453 0.131044,-0.583593 0.131044,-0.96065 0,-0.520818 -0.0857686,-0.921174 -0.25639,-1.20076 -0.171639,-0.280707 -0.379295,-0.467505 -0.624086,-0.562634 -0.176421,-0.0684725 -0.461808,-0.102149 -0.852803,-0.102149l-1.04764 0 0 3.80658zm4.2926 -3.69049l0 -0.704259 0.61259 0 0 0.704259 -0.61259 0zm0 4.27866l0 -3.6093 0.61259 0 0 3.6093 -0.61259 0zm2.54661 0l-1.37362 -3.6093 0.646164 0 0.77497 2.16141c0.0835303,0.233193 0.160142,0.475645 0.230955,0.727456 0.0544321,-0.190258 0.129925,-0.418872 0.227292,-0.686861l0.802847 -2.20201 0.628868 0 -1.3667 3.6093 -0.570774 0zm2.48037 -4.27866l0 -0.704259 0.61259 0 0 0.704259 -0.61259 0zm0 4.27866l0 -3.6093 0.61259 0 0 3.6093 -0.61259 0zm1.29945 -1.07775l0.60445 -0.0951289c0.0335749,0.242452 0.128704,0.428029 0.284166,0.557954 0.154343,0.128806 0.371257,0.193819 0.650845,0.193819 0.280808,0 0.489583,-0.057993 0.625409,-0.171741 0.135724,-0.114867 0.204095,-0.249472 0.204095,-0.402594 0,-0.139183 -0.0602314,-0.247132 -0.180898,-0.327101 -0.0835303,-0.0545338 -0.292407,-0.123006 -0.625409,-0.206537 -0.447767,-0.113748 -0.759912,-0.211217 -0.932772,-0.294747 -0.17286,-0.0823094 -0.305125,-0.197176 -0.394454,-0.34338 -0.0893296,-0.146203 -0.134503,-0.307465 -0.134503,-0.483784 0,-0.161261 0.0371359,-0.309703 0.111306,-0.446648 0.0731526,-0.138064 0.174081,-0.25171 0.300546,-0.342261 0.0951289,-0.0695916 0.225054,-0.129925 0.388655,-0.178659 0.164721,-0.0487345 0.34104,-0.0730509 0.528958,-0.0730509 0.283148,0 0.531399,0.0417143 0.746075,0.122905 0.214574,0.081292 0.372376,0.191479 0.474424,0.330662 0.102149,0.140404 0.171741,0.325982 0.209996,0.559175l-0.59743 0.0824112c-0.0278774,-0.185578 -0.106728,-0.330662 -0.236652,-0.435049 -0.130026,-0.104387 -0.314485,-0.156581 -0.552256,-0.156581 -0.280808,0 -0.481444,0.0463944 -0.600991,0.139183 -0.120666,0.0927889 -0.180999,0.201856 -0.180999,0.325982 0,0.0800711 0.0255373,0.150884 0.0753909,0.214676 0.0499554,0.0661324 0.127686,0.119445 0.234414,0.163601 0.0614523,0.0219763 0.241332,0.07417 0.540658,0.155462 0.432709,0.115986 0.734375,0.209894 0.904895,0.284166 0.171741,0.0731526 0.306244,0.180999 0.403713,0.321403 0.097469,0.140404 0.146203,0.314383 0.146203,0.52326 0,0.204197 -0.0603331,0.395574 -0.178659,0.576573 -0.119547,0.179778 -0.291186,0.319063 -0.515121,0.417652 -0.223935,0.0985882 -0.477985,0.147323 -0.761031,0.147323 -0.469947,0 -0.827266,-0.097469 -1.07318,-0.292305 -0.246013,-0.194938 -0.402594,-0.483784 -0.469845,-0.86664zm3.72753 -3.20091l0 -0.704259 0.61259 0 0 0.704259 -0.61259 0zm0 4.27866l0 -3.6093 0.61259 0 0 3.6093 -0.61259 0zm1.31563 -1.80521c0,-0.668243 0.185679,-1.16363 0.558056,-1.48503 0.309805,-0.26687 0.687981,-0.401373 1.13463,-0.401373 0.496604,0 0.902656,0.16238 1.21704,0.488362 0.315604,0.324863 0.472185,0.773851 0.472185,1.34696 0,0.465267 -0.0695916,0.830725 -0.208877,1.09637 -0.139183,0.26687 -0.342159,0.473305 -0.607909,0.620729 -0.266768,0.147323 -0.556835,0.220374 -0.872439,0.220374 -0.504641,0 -0.913034,-0.161261 -1.22508,-0.486124 -0.312145,-0.323642 -0.467607,-0.790028 -0.467607,-1.40028zm0.628868 0c0,0.462927 0.100928,0.808647 0.302785,1.03838 0.201856,0.230853 0.455907,0.34572 0.761031,0.34572 0.304006,0 0.556937,-0.116088 0.758793,-0.346941 0.200636,-0.230853 0.301666,-0.583491 0.301666,-1.0569 0,-0.446648 -0.10103,-0.78545 -0.304006,-1.01518 -0.203077,-0.229632 -0.454787,-0.344499 -0.756453,-0.344499 -0.305125,0 -0.559175,0.114867 -0.761031,0.34338 -0.201856,0.228513 -0.302785,0.574335 -0.302785,1.03604zm3.47124 1.80521l0 -3.6093 0.549916 0 0 0.512781c0.265649,-0.396693 0.648505,-0.59509 1.14857,-0.59509 0.218033,0 0.417652,0.0393742 0.59977,0.117105 0.183339,0.0789519 0.319063,0.180999 0.409512,0.308686 0.0916697,0.126364 0.154343,0.277247 0.191479,0.451226 0.0219763,0.113748 0.0335749,0.312145 0.0335749,0.595192l0 2.2194 -0.612488 0 0 -2.19621c0,-0.248251 -0.0231972,-0.435049 -0.0708125,-0.559175 -0.0476153,-0.123006 -0.132265,-0.221594 -0.252931,-0.294645 -0.121785,-0.0742718 -0.263309,-0.111408 -0.42691,-0.111408 -0.26107,0 -0.485005,0.0835303 -0.675263,0.248251 -0.189037,0.165941 -0.283047,0.479206 -0.283047,0.942031l0 1.97115 -0.611369 0zm5.57689 -1.80521c0,-0.668243 0.185679,-1.16363 0.558056,-1.48503 0.309805,-0.26687 0.687981,-0.401373 1.13463,-0.401373 0.496604,0 0.902656,0.16238 1.21704,0.488362 0.315604,0.324863 0.472185,0.773851 0.472185,1.34696 0,0.465267 -0.0695916,0.830725 -0.208877,1.09637 -0.139183,0.26687 -0.342159,0.473305 -0.607909,0.620729 -0.266768,0.147323 -0.556835,0.220374 -0.872439,0.220374 -0.504641,0 -0.913034,-0.161261 -1.22508,-0.486124 -0.312145,-0.323642 -0.467607,-0.790028 -0.467607,-1.40028zm0.628868 0c0,0.462927 0.100928,0.808647 0.302785,1.03838 0.201856,0.230853 0.455907,0.34572 0.761031,0.34572 0.304006,0 0.556937,-0.116088 0.758793,-0.346941 0.200636,-0.230853 0.301666,-0.583491 0.301666,-1.0569 0,-0.446648 -0.10103,-0.78545 -0.304006,-1.01518 -0.203077,-0.229632 -0.454787,-0.344499 -0.756453,-0.344499 -0.305125,0 -0.559175,0.114867 -0.761031,0.34338 -0.201856,0.228513 -0.302785,0.574335 -0.302785,1.03604zm3.61622 1.80521l0 -3.13366 -0.539437 0 0 -0.475645 0.539437 0 0 -0.383975c0,-0.242452 0.022078,-0.423451 0.0650132,-0.540658 0.0591122,-0.158921 0.16238,-0.287727 0.310924,-0.386315 0.148442,-0.0985882 0.356098,-0.147323 0.624086,-0.147323 0.171741,0 0.361999,0.019738 0.570875,0.0614523l-0.0916697 0.533638c-0.126466,-0.0231972 -0.247132,-0.0347958 -0.360879,-0.0347958 -0.185578,0 -0.316723,0.039476 -0.393233,0.119547 -0.077731,0.0788502 -0.115986,0.227394 -0.115986,0.445529l0 0.3329 0.703038 0 0 0.475645 -0.703038 0 0 3.13366 -0.60913 0zm3.82042 0l0 -4.98292 0.660205 0 0 2.04654 2.58944 0 0 -2.04654 0.660205 0 0 4.98292 -0.660205 0 0 -2.34821 -2.58944 0 0 2.34821 -0.660205 0zm7.39961 -1.16251l0.632226 0.077731c-0.0997073,0.370138 -0.284268,0.656644 -0.553376,0.86084 -0.270329,0.203077 -0.61493,0.305125 -1.0337,0.305125 -0.527838,0 -0.946711,-0.16238 -1.25529,-0.487243 -0.309805,-0.324863 -0.464046,-0.780769 -0.464046,-1.36782 0,-0.607909 0.156581,-1.07898 0.468624,-1.41422 0.313264,-0.335342 0.718198,-0.503522 1.21704,-0.503522 0.482665,0 0.877119,0.164721 1.18224,0.493043 0.306244,0.328322 0.459366,0.791249 0.459366,1.38644 0,0.0370341 -0.00111916,0.0915679 -0.00345923,0.1635l-2.69159 0c0.022078,0.396794 0.134605,0.7008 0.336461,0.910796 0.201856,0.211115 0.452447,0.316723 0.754113,0.316723 0.223935,0 0.415312,-0.0592139 0.574335,-0.17754 0.158921,-0.117207 0.284166,-0.305125 0.377056,-0.563855zm-2.00829 -0.989646l2.01521 0c-0.0266564,-0.302785 -0.104387,-0.531298 -0.230853,-0.682181 -0.194938,-0.235431 -0.447869,-0.353758 -0.757572,-0.353758 -0.280808,0 -0.517461,0.093908 -0.708939,0.281826 -0.191377,0.18802 -0.296985,0.43973 -0.317843,0.754113zm3.40277 2.15215l0 -3.6093 0.549916 0 0 0.546457c0.140404,-0.255271 0.270329,-0.42457 0.389876,-0.505862 0.118326,-0.0811902 0.24937,-0.122905 0.392114,-0.122905 0.206537,0 0.415312,0.0661324 0.628767,0.197176l-0.211115 0.568535c-0.148544,-0.0893296 -0.298206,-0.133486 -0.447869,-0.133486 -0.134503,0 -0.25405,0.0405951 -0.360778,0.120666 -0.106728,0.0811902 -0.182118,0.192598 -0.227394,0.335342 -0.0684725,0.216914 -0.102047,0.454787 -0.102047,0.713518l0 1.88986 -0.61147 0zm2.88877 0l-0.567314 0 0 -4.98292 0.61147 0 0 1.77744c0.25873,-0.323744 0.588171,-0.486124 0.988425,-0.486124 0.222714,0 0.432709,0.0451735 0.631107,0.134503 0.198397,0.0893296 0.360879,0.215795 0.489583,0.377056 0.127686,0.162482 0.228615,0.357318 0.300546,0.587052 0.0730509,0.228615 0.109068,0.473406 0.109068,0.733256 0,0.619508 -0.153224,1.09749 -0.459468,1.43517 -0.305125,0.33758 -0.672923,0.50576 -1.10095,0.50576 -0.425791,0 -0.759912,-0.177438 -1.00247,-0.533638l0 0.452447zm-0.00691847 -1.83187c0,0.432709 0.0592139,0.744753 0.176319,0.937351 0.192598,0.315604 0.453668,0.473406 0.78199,0.473406 0.267989,0 0.498842,-0.116088 0.69378,-0.349281 0.194938,-0.231972 0.292305,-0.577692 0.292305,-1.03828 0,-0.471066 -0.093908,-0.819126 -0.280707,-1.04306 -0.186799,-0.223833 -0.413073,-0.33636 -0.677501,-0.33636 -0.268091,0 -0.498944,0.115986 -0.69378,0.347958 -0.194938,0.232074 -0.292407,0.568535 -0.292407,1.00826zm3.06987 0.754113l0.60445 -0.0951289c0.0335749,0.242452 0.128704,0.428029 0.284166,0.557954 0.154343,0.128806 0.371257,0.193819 0.650845,0.193819 0.280808,0 0.489583,-0.057993 0.625409,-0.171741 0.135724,-0.114867 0.204095,-0.249472 0.204095,-0.402594 0,-0.139183 -0.0602314,-0.247132 -0.180898,-0.327101 -0.0835303,-0.0545338 -0.292407,-0.123006 -0.625409,-0.206537 -0.447767,-0.113748 -0.759912,-0.211217 -0.932772,-0.294747 -0.17286,-0.0823094 -0.305125,-0.197176 -0.394454,-0.34338 -0.0893296,-0.146203 -0.134503,-0.307465 -0.134503,-0.483784 0,-0.161261 0.0371359,-0.309703 0.111306,-0.446648 0.0731526,-0.138064 0.174081,-0.25171 0.300546,-0.342261 0.0951289,-0.0695916 0.225054,-0.129925 0.388655,-0.178659 0.164721,-0.0487345 0.34104,-0.0730509 0.528958,-0.0730509 0.283148,0 0.531399,0.0417143 0.746075,0.122905 0.214574,0.081292 0.372376,0.191479 0.474424,0.330662 0.102149,0.140404 0.171741,0.325982 0.209996,0.559175l-0.59743 0.0824112c-0.0278774,-0.185578 -0.106728,-0.330662 -0.236652,-0.435049 -0.130026,-0.104387 -0.314485,-0.156581 -0.552256,-0.156581 -0.280808,0 -0.481444,0.0463944 -0.600991,0.139183 -0.120666,0.0927889 -0.180999,0.201856 -0.180999,0.325982 0,0.0800711 0.0255373,0.150884 0.0753909,0.214676 0.0499554,0.0661324 0.127686,0.119445 0.234414,0.163601 0.0614523,0.0219763 0.241332,0.07417 0.540658,0.155462 0.432709,0.115986 0.734375,0.209894 0.904895,0.284166 0.171741,0.0731526 0.306244,0.180999 0.403713,0.321403 0.097469,0.140404 0.146203,0.314383 0.146203,0.52326 0,0.204197 -0.0603331,0.395574 -0.178659,0.576573 -0.119547,0.179778 -0.291186,0.319063 -0.515121,0.417652 -0.223935,0.0985882 -0.477985,0.147323 -0.761031,0.147323 -0.469947,0 -0.827266,-0.097469 -1.07318,-0.292305 -0.246013,-0.194938 -0.402594,-0.483784 -0.469845,-0.86664zm5.65931 1.07775l0 -3.6093 0.549916 0 0 0.512781c0.265649,-0.396693 0.648505,-0.59509 1.14857,-0.59509 0.218033,0 0.417652,0.0393742 0.59977,0.117105 0.183339,0.0789519 0.319063,0.180999 0.409512,0.308686 0.0916697,0.126364 0.154343,0.277247 0.191479,0.451226 0.0219763,0.113748 0.0335749,0.312145 0.0335749,0.595192l0 2.2194 -0.612488 0 0 -2.19621c0,-0.248251 -0.0231972,-0.435049 -0.0708125,-0.559175 -0.0476153,-0.123006 -0.132265,-0.221594 -0.252931,-0.294645 -0.121785,-0.0742718 -0.263309,-0.111408 -0.42691,-0.111408 -0.26107,0 -0.485005,0.0835303 -0.675263,0.248251 -0.189037,0.165941 -0.283047,0.479206 -0.283047,0.942031l0 1.97115 -0.611369 0zm5.90288 0l0 -4.98292 0.660205 0 0 2.04654 2.58944 0 0 -2.04654 0.660205 0 0 4.98292 -0.660205 0 0 -2.34821 -2.58944 0 0 2.34821 -0.660205 0zm7.39961 -1.16251l0.632226 0.077731c-0.0997073,0.370138 -0.284268,0.656644 -0.553376,0.86084 -0.270329,0.203077 -0.61493,0.305125 -1.0337,0.305125 -0.527838,0 -0.946711,-0.16238 -1.25529,-0.487243 -0.309805,-0.324863 -0.464046,-0.780769 -0.464046,-1.36782 0,-0.607909 0.156581,-1.07898 0.468624,-1.41422 0.313264,-0.335342 0.718198,-0.503522 1.21704,-0.503522 0.482665,0 0.877119,0.164721 1.18224,0.493043 0.306244,0.328322 0.459366,0.791249 0.459366,1.38644 0,0.0370341 -0.00111916,0.0915679 -0.00345923,0.1635l-2.69159 0c0.022078,0.396794 0.134605,0.7008 0.336461,0.910796 0.201856,0.211115 0.452447,0.316723 0.754113,0.316723 0.223935,0 0.415312,-0.0592139 0.574335,-0.17754 0.158921,-0.117207 0.284166,-0.305125 0.377056,-0.563855zm-2.00829 -0.989646l2.01521 0c-0.0266564,-0.302785 -0.104387,-0.531298 -0.230853,-0.682181 -0.194938,-0.235431 -0.447869,-0.353758 -0.757572,-0.353758 -0.280808,0 -0.517461,0.093908 -0.708939,0.281826 -0.191377,0.18802 -0.296985,0.43973 -0.317843,0.754113zm5.76491 1.70662c-0.227394,0.192598 -0.445529,0.328322 -0.654406,0.408393 -0.209996,0.0789519 -0.435049,0.118326 -0.675161,0.118326 -0.396794,0 -0.7008,-0.0962481 -0.914255,-0.290067 -0.212234,-0.193717 -0.319063,-0.441968 -0.319063,-0.742413 0,-0.17754 0.039476,-0.338801 0.120666,-0.485005 0.0800711,-0.146203 0.185679,-0.263309 0.315604,-0.351519 0.131146,-0.0882105 0.277247,-0.155462 0.440849,-0.200737 0.119547,-0.0313366 0.300445,-0.0626732 0.542998,-0.0916697 0.494162,-0.0591122 0.8585,-0.128704 1.09169,-0.211115 0.00234007,-0.0835303 0.00345923,-0.136843 0.00345923,-0.158921 0,-0.249472 -0.057993,-0.425791 -0.173979,-0.526719 -0.155462,-0.139183 -0.388655,-0.207656 -0.69612,-0.207656 -0.287727,0 -0.500063,0.0498537 -0.638127,0.150782 -0.136843,0.100928 -0.237771,0.279587 -0.303904,0.535978l-0.597532 -0.0823094c0.0545338,-0.255271 0.143863,-0.462927 0.267989,-0.619508 0.124125,-0.157802 0.305125,-0.279689 0.540658,-0.364339 0.235533,-0.0846495 0.508202,-0.127585 0.819126,-0.127585 0.308584,0 0.557954,0.0371359 0.750552,0.109068 0.192598,0.0730509 0.334121,0.1635 0.425791,0.273788 0.0905505,0.110187 0.153122,0.248251 0.190258,0.416431 0.019738,0.104489 0.0302174,0.292407 0.0302174,0.563855l0 0.815565c0,0.569654 0.0127178,0.929313 0.0393742,1.07898 0.0255373,0.150884 0.077731,0.295866 0.154343,0.43393l-0.639246 0c-0.0626732,-0.126466 -0.104387,-0.275009 -0.121785,-0.445529zm-0.0510746 -1.3666c-0.222714,0.0915679 -0.555716,0.16818 -0.998905,0.231972 -0.25171,0.0360167 -0.430471,0.0766118 -0.533638,0.121785 -0.104489,0.0452753 -0.185679,0.111408 -0.241332,0.199618 -0.0568739,0.0869896 -0.0858704,0.183238 -0.0858704,0.289965 0,0.163601 0.0626732,0.299325 0.185578,0.408393 0.123006,0.107948 0.304006,0.162482 0.541879,0.162482 0.235431,0 0.445427,-0.0510746 0.628767,-0.154343 0.183339,-0.103268 0.319063,-0.244792 0.404934,-0.423451 0.0661324,-0.138064 0.0985882,-0.342261 0.0985882,-0.611369l0 -0.225054zm1.5535 1.81213l0 -4.98292 0.611369 0 0 4.98292 -0.611369 0zm2.89568 -0.547576l0.0882105 0.540658c-0.171741,0.035915 -0.325982,0.0545338 -0.461706,0.0545338 -0.222815,0 -0.394454,-0.0348976 -0.517461,-0.105608 -0.121785,-0.0695916 -0.207656,-0.162482 -0.257611,-0.277247 -0.0498537,-0.113748 -0.0753909,-0.35508 -0.0753909,-0.721657l0 -2.07676 -0.448988 0 0 -0.475645 0.448988 0 0 -0.894415 0.60913 -0.366679 0 1.26109 0.614828 0 0 0.475645 -0.614828 0 0 2.11044c0,0.175098 0.0103777,0.286506 0.0313366,0.33636 0.0219763,0.0499554 0.0567721,0.0893296 0.105507,0.119547 0.0487345,0.0289965 0.118428,0.0440544 0.208877,0.0440544 0.0684725,0 0.157802,-0.00813937 0.269108,-0.0243164zm0.598753 0.547576l0 -4.98292 0.611369 0 0 1.78781c0.285387,-0.330662 0.646164,-0.496502 1.08132,-0.496502 0.266768,0 0.498842,0.0533129 0.696018,0.158921 0.197278,0.104387 0.338801,0.250591 0.423451,0.436169 0.0847512,0.185679 0.127686,0.456008 0.127686,0.808647l0 2.28788 -0.61259 0 0 -2.28788c0,-0.305125 -0.0661324,-0.527838 -0.198397,-0.667022 -0.132265,-0.139285 -0.320183,-0.209996 -0.562634,-0.209996 -0.180999,0 -0.351519,0.0475136 -0.511661,0.141523 -0.160142,0.093908 -0.273788,0.221594 -0.341141,0.382856 -0.0683707,0.16004 -0.102047,0.382856 -0.102047,0.665902l0 1.97461 -0.611369 0z"></path> </g> </svg> 